<?xml version="1.0" standalone="no"?>
<!DOCTYPE svg PUBLIC "-//W3C//DTD SVG 20010904//EN"
 "http://www.w3.org/TR/2001/REC-SVG-20010904/DTD/svg10.dtd">
<svg version="1.0" xmlns="http://www.w3.org/2000/svg"
 width="300.000000pt" height="171.000000pt" viewBox="0 0 300.000000 171.000000"
 preserveAspectRatio="xMidYMid meet">
<metadata>
Created by potrace 1.10, written by Peter Selinger 2001-2011
</metadata>
<g transform="translate(0.000000,171.000000) scale(0.100000,-0.100000)">
  <!-- Color primario: base del logo -->
  <g fill="#fff" stroke="none">
    <path d="M1252 1603 c-47 -23 -89 -76 -107 -135 -29 -97 -27 -100 73 -132 99
    -32 152 -55 152 -66 0 -10 -105 15 -227 55 -57 18 -103 29 -103 24 0 -5 3 -9
    8 -9 4 -1 30 -21 57 -46 28 -25 43 -44 35 -41 -8 3 -24 8 -35 13 -17 6 -17 4
    5 -20 14 -16 37 -34 52 -42 29 -15 189 -56 195 -50 2 2 -15 20 -38 40 l-43 36
    31 0 c17 0 42 -10 57 -21 29 -23 41 -21 95 20 l23 18 -20 40 c-11 21 -28 45
    -36 52 -18 15 -20 8 -6 -20 23 -43 -9 -15 -58 51 -29 39 -57 70 -62 70 -7 0
    -7 -7 0 -21 23 -42 2 -42 -28 0 -48 66 -42 129 16 178 32 27 13 30 -36 6z"/>
    <path d="M1731 1581 c31 -31 39 -46 39 -75 0 -42 -18 -82 -49 -110 -23 -21
    -25 -19 -11 18 16 43 -12 21 -64 -49 -45 -61 -80 -89 -56 -46 16 31 12 36 -11
    15 -12 -10 -28 -35 -36 -54 -15 -33 -14 -35 13 -58 42 -34 64 -45 64 -32 0 14
    62 40 92 40 20 -1 18 -5 -22 -40 -51 -45 -49 -46 52 -25 72 16 142 49 169 81
    12 15 11 16 -19 10 -17 -4 -32 -6 -32 -3 0 2 25 24 55 48 30 24 55 47 55 51 0
    3 -27 -4 -60 -18 -55 -22 -242 -74 -265 -74 -5 1 0 9 11 19 12 9 67 31 123 47
    100 29 101 29 101 60 0 88 -55 184 -124 215 -62 28 -68 23 -25 -20z"/>
    <path d="M65 1218 c27 -90 157 -249 275 -335 113 -82 310 -182 339 -171 5 2
    -4 37 -21 78 -31 79 -32 132 -2 144 8 3 12 11 8 17 -5 8 -29 10 -78 5 -70 -7
    -72 -6 -186 46 -62 29 -106 54 -97 56 9 2 64 -18 122 -43 96 -44 109 -47 158
    -41 68 9 107 0 107 -24 0 -31 70 -42 105 -16 18 13 18 14 -3 25 -12 6 -22 16
    -22 21 0 18 41 10 73 -14 32 -24 33 -24 140 -13 59 6 107 14 107 18 0 14 -220
    52 -269 46 -46 -5 -50 -4 -53 16 -2 18 -10 22 -38 22 -33 0 -35 -2 -40 -36
    l-5 -37 -164 44 c-90 24 -176 44 -190 44 -14 0 -49 12 -76 26 -57 30 -175 121
    -175 135 0 5 -5 9 -11 9 -6 0 -8 -9 -4 -22z"/>
    <path d="M2909 1204 c-50 -52 -176 -134 -206 -134 -22 0 -308 -71 -348 -86
    -10 -4 -15 5 -17 33 -3 36 -5 38 -38 38 -28 0 -36 -4 -38 -22 -3 -20 -7 -21
    -53 -16 -48 6 -263 -30 -282 -47 -4 -4 32 -10 80 -13 48 -4 102 -9 119 -13
    24 -4 37 0 61 20 31 26 73 35 73 16 0 -6 -7 -13 -15 -16 -20 -8 -19 -30 1 -38
    42 -16 94 -3 94 25 0 21 5 22 115 24 60 1 84 7 163 43 85 39 140 54 117 33
    -6 -4 -57 -29 -115 -55 -104 -45 -107 -46 -183 -40 -79 7 -100 -3 -57 -26 33
    -18 33 -51 0 -134 -17 -43 -29 -80 -27 -82 7 -8 91 27 167 67 172 93 332 244
    396 375 21 41 35 76 32 79 -2 3 -20 -11 -39 -31z"/>
    <path d="M266 1201 c5 -5 72 -40 149 -79 132 -67 143 -70 180 -62 22 5 56 10
    74 10 58 0 24 16 -134 60 -82 23 -172 51 -198 61 -51 20 -88 25 -71 10z"/>
    <path d="M1440 1169 c-152 -109 -181 -183 -105 -274 l24 -30 -6 47 c-8 66 23
    127 95 183 l55 44 60 -46 c73 -56 102 -113 93 -180 -3 -23 -4 -43 -1 -43 2 0
    16 17 30 37 38 56 35 121 -7 169 -30 34 -164 135 -177 133 -3 0 -31 -18 -61
    -40z"/>
    <path d="M2695 1194 c-22 -8 -112 -35 -200 -61 -88 -25 -164 -50 -170 -54 -5
    -5 8 -9 30 -9 22 0 58 -5 80 -10 38 -9 47 -5 182 66 79 41 143 77 143 80 0 7
    -24 3 -65 -12z"/>
    <path d="M1210 1126 c35 -20 67 -36 70 -36 4 0 15 9 25 20 20 22 17 25 -50 34
    -22 3 -56 8 -75 11 -31 6 -27 2 30 -29z"/>
    <path d="M1768 1146 c-68 -13 -74 -18 -50 -39 17 -16 23 -15 88 18 73 37 66
    42 -38 21z"/>
    <path d="M1170 1094 c0 -11 59 -101 75 -114 11 -9 13 -3 12 32 -2 39 -5 44
    -44 66 -24 13 -43 20 -43 16z"/>
    <path d="M1793 1075 c-36 -22 -40 -28 -40 -65 0 -40 0 -40 19 -23 23 20 73
    102 66 108 -2 2 -22 -7 -45 -20z"/>
    <path d="M980 928 c-51 -16 -93 -21 -197 -22 -119 -1 -133 -3 -133 -18 0 -18
    69 -198 96 -249 11 -22 22 -29 44 -29 26 0 30 3 25 23 -14 58 -21 178 -11 185
    6 4 79 10 161 13 174 6 124 13 -77 10 -46 -1 -89 -5 -97 -10 -10 -6 -14 -28
    -13 -71 1 -79 -12 -76 -56 13 -43 88 -36 106 38 97 52 -7 152 10 274 45 56 16
    60 16 129 -5 111 -34 113 -35 137 -87 43 -93 80 -140 132 -168 41 -22 57 -26
    93 -21 79 12 170 104 195 197 11 41 14 42 115 70 73 19 170 25 179 11 3 -5 37
    -15 76 -22 39 -7 78 -19 88 -26 14 -11 3 -13 -71 -14 -109 0 -274 -18 -302
    -32 -22 -12 -65 -55 -65 -66 0 -4 -11 -19 -25 -34 -14 -15 -25 -30 -25 -33 0
    -4 -14 -26 -30 -51 -57 -81 -23 -45 56 61 54 72 87 108 108 116 39 14 284 24
    361 14 l58 -7 -7 -66 c-3 -37 -9 -84 -12 -104 -6 -37 -6 -38 23 -38 27 0 33 6
    61 68 39 85 82 200 82 219 0 10 -6 12 -21 8 -44 -14 -188 -5 -306 20 -146 30
    -156 30 -241 6 -37 -11 -79 -22 -94 -25 -20 -5 -28 -13 -28 -29 -1 -57 -81
    -171 -143 -204 -38 -19 -89 -12 -130 20 -35 27 -92 115 -112 173 -12 34 -17
    38 -81 57 -102 28 -177 30 -254 5z m1360 -68 c7 -12 7 -26 1 -37 -5 -10 -15
    -33 -21 -50 -13 -34 -42 -73 -55 -73 -4 0 -5 14 -1 30 9 50 -4 90 -37 110
    l-30 18 49 7 c46 6 76 11 81 14 1 0 7 -8 13 -19z"/>
    <path d="M1129 829 c-11 -7 -9 -9 7 -9 52 0 83 -22 126 -88 24 -36 74 -106
    111 -155 37 -49 66 -91 64 -94 -3 -2 -36 36 -75 84 -139 175 -155 185 -278
    182 -45 -1 -109 -6 -141 -11 -70 -11 -99 -5 -106 22 -9 36 24 43 172 37 134
    -5 169 -9 194 -23 6 -4 4 2 -6 12 -16 17 -37 19 -204 22 l-186 4 6 -24 c4 -13
    7 -38 7 -57 l0 -34 73 7 c227 19 252 19 287 1 19 -10 82 -67 140 -128 59 -60
    112 -107 117 -104 6 4 18 -2 28 -13 21 -24 48 -26 65 -5 7 8 16 13 20 10 13
    -8 92 60 173 148 93 103 115 112 234 103 45 -3 121 -9 168 -12 61 -5 85 -4 85
    5 0 6 -10 11 -22 12 -32 1 -83 7 -150 19 -74 14 -174 14 -217 1 -19 -6 -36
    -10 -37 -8 -1 1 6 12 16 24 14 17 37 25 111 37 l94 14 -65 1 c-110 2 -127 -7
    -200 -106 -105 -142 -184 -237 -187 -226 -3 8 -14 7 -35 -1 -29 -11 -32 -9
    -80 44 -27 30 -72 90 -101 133 -28 42 -55 77 -59 77 -5 0 -8 6 -8 13 0 11 -53
    77 -62 77 -2 0 -17 4 -34 9 -18 5 -37 5 -45 0z"/>
    <path d="M430 215 l0 -125 25 0 25 0 0 125 0 125 -25 0 -25 0 0 -125z"/>
    <path d="M623 290 c-33 -43 -43 -49 -74 -50 -31 0 -37 -4 -41 -25 -5 -23 -2
    -25 32 -25 33 0 43 -6 80 -50 33 -40 48 -50 72 -50 l30 0 -19 24 c-10 13 -32
    42 -50 63 l-32 39 49 54 c27 30 49 58 50 63 0 4 -13 7 -29 7 -24 0 -37 -10
    -68 -50z"/>
    <path d="M800 244 c0 -92 1 -97 29 -125 28 -28 34 -29 116 -29 82 0 88 1 116
    29 28 28 29 33 29 125 0 96 0 96 -25 96 -25 0 -25 -1 -25 -88 0 -55 -4 -92
    -12 -100 -16 -16 -150 -16 -166 0 -8 8 -12 45 -12 100 0 87 0 88 -25 88 -25 0
    -25 0 -25 -96z"/>
    <path d="M1165 215 c0 -123 0 -125 23 -125 21 0 22 3 22 98 l1 97 92 -97 c80
    -84 97 -98 125 -98 l32 0 0 125 0 125 -25 0 c-25 0 -25 0 -25 -97 l-1 -98 -92
    98 c-77 81 -97 97 -122 97 l-30 0 0 -125z"/>
    <path d="M1530 315 c0 -24 2 -25 67 -25 l66 0 -6 -100 -6 -100 27 0 27 0 -3
    100 -3 100 65 0 c64 0 66 1 66 25 l0 25 -150 0 -150 0 0 -25z"/>
    <path d="M1900 244 c0 -92 1 -97 29 -125 28 -28 34 -29 116 -29 82 0 88 1 116
    29 28 28 29 33 29 125 0 96 0 96 -25 96 -25 0 -25 -1 -25 -88 0 -55 -4 -92
    -12 -100 -16 -16 -150 -16 -166 0 -8 8 -12 45 -12 100 0 87 0 88 -25 88 -25 0
    -25 0 -25 -96z"/>
    <path d="M2268 316 l-5 -25 115 -3 c96 -3 117 -6 126 -20 21 -33 -6 -42 -123
    -39 l-109 2 -4 -70 -3 -71 29 0 c28 0 28 1 22 45 l-7 45 64 0 65 0 33 -45 c28
    -37 40 -44 67 -45 l34 0 -35 42 -35 42 29 27 c36 33 37 68 5 106 -24 27 -27
    28 -144 31 l-119 4 -5 -26z"/>
  </g>
  <!-- Color secundario: detalles internos y centrales -->
  <g fill="#fff" stroke="none">
    <path d="M1405 1587 c-49 -19 -89 -43 -109 -66 -15 -17 -16 -23 -6 -36 16 -20
    34 -19 51 2 25 30 111 63 164 63 53 0 126 -28 161 -61 19 -18 25 -19 43 -7 12
    7 21 16 21 20 0 16 -79 70 -124 83 -58 18 -159 18 -201 2z"/>
    <path d="M1420 1504 c-51 -22 -72 -44 -59 -60 9 -11 18 -8 47 11 70 45 137 45
    192 -1 25 -21 33 -24 45 -14 12 10 13 15 3 28 -39 47 -159 66 -228 36z"/>
    <path d="M1457 1446 c-73 -27 -74 -33 -15 -93 29 -29 55 -53 59 -53 9 0 109
    101 109 111 0 11 -48 35 -85 42 -16 4 -47 0 -68 -7z m99 -37 c10 -17 -40 -62
    -62 -55 -23 7 -47 43 -39 56 8 14 92 12 101 -1z"/>
    <path d="M1468 1065 c-33 -29 -34 -36 -8 -60 14 -12 19 -29 18 -55 -1 -20 6
    -47 14 -59 15 -22 15 -22 29 11 7 18 12 44 11 58 -2 17 6 34 22 49 l24 23 -33
    29 c-39 35 -42 35 -77 4z"/>
    <path d="M1407 993 c-3 -4 -8 -22 -11 -40 -11 -51 11 -110 61 -165 l46 -49 40
    38 c55 53 81 113 72 170 -5 34 -10 43 -23 41 -12 -2 -19 -17 -22 -49 -3 -27
    -18 -65 -34 -89 -26 -40 -28 -41 -46 -25 -27 25 -50 78 -50 118 0 33 -23 67
    -33 50z"/>
  </g>
</g>
</svg>
